<svg data-v-423bf9ae="" xmlns="http://www.w3.org/2000/svg" viewBox="0 0 500 90" class="iconLeftSlogan"><!----><!----><!----><g data-v-423bf9ae="" id="9d79ec57-ec69-462a-8754-a95b885cedcb" fill="#000000" transform="matrix(4.735595510851375,0,0,4.735595510851375,107.5374857016387,-16.716651302563143)"><path d="M4.24 5.15L4.24 5.15Q6.44 5.15 7.46 6.24L7.46 6.24L7.46 6.24Q8.48 7.32 8.48 9.25L8.48 9.25L8.48 9.25Q8.48 11.24 7.50 12.48L7.50 12.48L7.50 12.48Q6.52 13.72 4.48 13.72L4.48 13.72L0.52 13.72L0.52 13.20L1.76 12.91L1.76 5.96L0.52 5.67L0.52 5.15L4.24 5.15ZM4.14 5.88L4.14 5.88Q3.57 5.88 3.15 5.96L3.15 5.96L3.15 12.87L3.15 12.87Q3.42 12.95 3.84 13.01L3.84 13.01L3.84 13.01Q4.26 13.08 4.62 13.08L4.62 13.08L4.62 13.08Q5.98 13.08 6.49 11.96L6.49 11.96L6.49 11.96Q7 10.85 7 9.25L7 9.25L7 9.25Q7 7.71 6.24 6.80L6.24 6.80L6.24 6.80Q5.49 5.88 4.14 5.88L4.14 5.88ZM11.30 5.66L11.30 5.66Q10.91 5.66 10.63 5.40L10.63 5.40L10.63 5.40Q10.35 5.14 10.35 4.76L10.35 4.76L10.35 4.76Q10.35 4.38 10.63 4.10L10.63 4.10L10.63 4.10Q10.92 3.82 11.30 3.82L11.30 3.82L11.30 3.82Q11.66 3.82 11.95 4.10L11.95 4.10L11.95 4.10Q12.24 4.38 12.24 4.76L12.24 4.76L12.24 4.76Q12.24 5.14 11.96 5.40L11.96 5.40L11.96 5.40Q11.68 5.66 11.30 5.66L11.30 5.66ZM13.20 13.72L9.41 13.72L9.41 13.19L10.61 12.91L10.61 7.81L9.41 7.67L9.41 7.24L11.56 6.71L12.00 6.71L12.00 12.91L13.20 13.19L13.20 13.72ZM17.15 13.87L17.15 13.87Q15.50 13.87 14.71 12.94L14.71 12.94L14.71 12.94Q13.93 12.01 13.93 10.32L13.93 10.32L13.93 10.32Q13.93 8.51 14.74 7.61L14.74 7.61L14.74 7.61Q15.54 6.71 17.00 6.71L17.00 6.71L17.00 6.71Q18.38 6.71 19.03 7.35L19.03 7.35L19.03 7.35Q19.68 7.99 19.68 9.37L19.68 9.37L19.68 9.37Q19.68 9.73 19.64 10.14L19.64 10.14L15.44 10.14L15.44 10.54L15.44 10.54Q15.44 11.77 15.97 12.40L15.97 12.40L15.97 12.40Q16.49 13.03 17.46 13.03L17.46 13.03L17.46 13.03Q18.35 13.03 19.50 12.71L19.50 12.71L19.60 13.20L19.60 13.20Q19.04 13.55 18.47 13.71L18.47 13.71L18.47 13.71Q17.89 13.87 17.15 13.87L17.15 13.87ZM15.47 9.56L18.23 9.41L18.23 9.10L18.23 9.10Q18.23 8.29 17.96 7.89L17.96 7.89L17.96 7.89Q17.70 7.49 17.08 7.49L17.08 7.49L17.08 7.49Q16.24 7.49 15.88 7.97L15.88 7.97L15.88 7.97Q15.53 8.46 15.47 9.56L15.47 9.56ZM23.10 16.20L23.10 16.20Q21.57 16.20 21.04 15.83L21.04 15.83L21.04 15.83Q20.51 15.46 20.51 14.84L20.51 14.84L20.51 14.84Q20.51 14.04 21.38 13.37L21.38 13.37L21.38 13.37Q21.14 13.27 21.02 13.05L21.02 13.05L21.02 13.05Q20.90 12.84 20.90 12.57L20.90 12.57L20.90 12.57Q20.90 12.25 21.14 11.90L21.14 11.90L21.14 11.90Q21.38 11.55 21.80 11.12L21.80 11.12L21.80 11.12Q20.89 10.51 20.89 9.07L20.89 9.07L20.89 9.07Q20.89 8.43 21.18 7.89L21.18 7.89L21.18 7.89Q21.48 7.35 22.07 7.02L22.07 7.02L22.07 7.02Q22.67 6.69 23.51 6.69L23.51 6.69L23.51 6.69Q24.37 6.69 25.09 7.07L25.09 7.07L27.05 6.54L27.05 7.59L25.55 7.59L25.55 7.59Q25.83 7.85 25.98 8.26L25.98 8.26L25.98 8.26Q26.12 8.67 26.12 9.07L26.12 9.07L26.12 9.07Q26.12 10.09 25.47 10.77L25.47 10.77L25.47 10.77Q24.81 11.44 23.39 11.44L23.39 11.44L23.39 11.44Q23.07 11.44 22.77 11.40L22.77 11.40L22.77 11.40Q22.47 11.35 22.41 11.33L22.41 11.33L22.41 11.33Q22.11 11.79 22.11 12.01L22.11 12.01L22.11 12.01Q22.11 12.18 22.22 12.32L22.22 12.32L22.22 12.32Q22.33 12.46 22.54 12.46L22.54 12.46L24.68 12.46L24.68 12.46Q25.75 12.46 26.30 12.77L26.30 12.77L26.30 12.77Q26.85 13.08 26.85 13.92L26.85 13.92L26.85 13.92Q26.85 14.49 26.45 15.02L26.45 15.02L26.45 15.02Q26.04 15.54 25.19 15.87L25.19 15.87L25.19 15.87Q24.35 16.20 23.10 16.20L23.10 16.20ZM23.53 10.71L23.53 10.71Q24.21 10.71 24.48 10.29L24.48 10.29L24.48 10.29Q24.75 9.87 24.75 9.07L24.75 9.07L24.75 9.07Q24.75 7.42 23.49 7.42L23.49 7.42L23.49 7.42Q22.83 7.42 22.56 7.85L22.56 7.85L22.56 7.85Q22.29 8.29 22.29 9.07L22.29 9.07L22.29 9.07Q22.29 9.87 22.57 10.29L22.57 10.29L22.57 10.29Q22.86 10.71 23.53 10.71L23.53 10.71ZM23.18 15.43L23.18 15.43Q24.44 15.43 25.03 15.08L25.03 15.08L25.03 15.08Q25.62 14.73 25.62 14.11L25.62 14.11L25.62 14.11Q25.62 13.72 25.40 13.59L25.40 13.59L25.40 13.59Q25.19 13.47 24.68 13.47L24.68 13.47L22.19 13.47L22.19 13.47Q21.76 14 21.76 14.53L21.76 14.53L21.76 14.53Q21.76 15.01 22.06 15.22L22.06 15.22L22.06 15.22Q22.37 15.43 23.18 15.43L23.18 15.43ZM31.08 6.71L31.08 6.71Q32.79 6.71 33.59 7.70L33.59 7.70L33.59 7.70Q34.40 8.69 34.40 10.32L34.40 10.32L34.40 10.32Q34.40 11.89 33.59 12.87L33.59 12.87L33.59 12.87Q32.77 13.86 31.08 13.86L31.08 13.86L31.08 13.86Q29.40 13.86 28.58 12.87L28.58 12.87L28.58 12.87Q27.76 11.89 27.76 10.32L27.76 10.32L27.76 10.32Q27.76 8.71 28.57 7.71L28.57 7.71L28.57 7.71Q29.39 6.71 31.08 6.71L31.08 6.71ZM32.89 10.28L32.89 10.28Q32.89 8.93 32.48 8.20L32.48 8.20L32.48 8.20Q32.07 7.46 31.04 7.46L31.04 7.46L31.04 7.46Q30.06 7.46 29.67 8.20L29.67 8.20L29.67 8.20Q29.27 8.95 29.27 10.28L29.27 10.28L29.27 10.28Q29.27 11.62 29.68 12.36L29.68 12.36L29.68 12.36Q30.09 13.10 31.12 13.10L31.12 13.10L31.12 13.10Q32.13 13.10 32.51 12.37L32.51 12.37L32.51 12.37Q32.89 11.63 32.89 10.28L32.89 10.28ZM35.94 7.18L35.45 3.95L36.82 3.95L36.34 7.18L35.94 7.18ZM40.53 7.49L40.53 7.49Q39.90 7.49 39.55 7.74L39.55 7.74L39.55 7.74Q39.20 7.98 39.20 8.41L39.20 8.41L39.20 8.41Q39.20 8.82 39.40 9.04L39.40 9.04L39.40 9.04Q39.59 9.25 40.10 9.44L40.10 9.44L41.29 9.84L41.29 9.84Q42.14 10.14 42.47 10.56L42.47 10.56L42.47 10.56Q42.80 10.98 42.80 11.72L42.80 11.72L42.80 11.72Q42.80 12.71 42.10 13.29L42.10 13.29L42.10 13.29Q41.41 13.86 40.11 13.86L40.11 13.86L40.11 13.86Q39.61 13.86 39.01 13.76L39.01 13.76L39.01 13.76Q38.42 13.66 37.95 13.50L37.95 13.50L38.15 11.77L38.70 11.77L38.99 12.94L38.99 12.94Q39.55 13.10 40.14 13.10L40.14 13.10L40.14 13.10Q41.58 13.10 41.58 11.97L41.58 11.97L41.58 11.97Q41.58 11.63 41.36 11.42L41.36 11.42L41.36 11.42Q41.13 11.20 40.53 10.99L40.53 10.99L39.45 10.63L39.45 10.63Q38.71 10.35 38.37 9.91L38.37 9.91L38.37 9.91Q38.04 9.48 38.04 8.76L38.04 8.76L38.04 8.76Q38.04 7.78 38.67 7.25L38.67 7.25L38.67 7.25Q39.30 6.71 40.56 6.71L40.56 6.71L40.56 6.71Q41.55 6.71 42.53 7.14L42.53 7.14L42.32 8.72L41.79 8.72L41.50 7.70L41.50 7.70Q41.31 7.62 41.04 7.55L41.04 7.55L41.04 7.55Q40.77 7.49 40.53 7.49L40.53 7.49ZM50.32 5.15L50.32 5.15Q52.51 5.15 53.54 6.24L53.54 6.24L53.54 6.24Q54.56 7.32 54.56 9.25L54.56 9.25L54.56 9.25Q54.56 11.24 53.58 12.48L53.58 12.48L53.58 12.48Q52.60 13.72 50.55 13.72L50.55 13.72L46.59 13.72L46.59 13.20L47.84 12.91L47.84 5.96L46.59 5.67L46.59 5.15L50.32 5.15ZM50.22 5.88L50.22 5.88Q49.64 5.88 49.22 5.96L49.22 5.96L49.22 12.87L49.22 12.87Q49.49 12.95 49.91 13.01L49.91 13.01L49.91 13.01Q50.33 13.08 50.69 13.08L50.69 13.08L50.69 13.08Q52.05 13.08 52.56 11.96L52.56 11.96L52.56 11.96Q53.07 10.85 53.07 9.25L53.07 9.25L53.07 9.25Q53.07 7.71 52.32 6.80L52.32 6.80L52.32 6.80Q51.56 5.88 50.22 5.88L50.22 5.88ZM58.79 13.87L58.79 13.87Q57.13 13.87 56.35 12.94L56.35 12.94L56.35 12.94Q55.57 12.01 55.57 10.32L55.57 10.32L55.57 10.32Q55.57 8.51 56.37 7.61L56.37 7.61L56.37 7.61Q57.18 6.71 58.63 6.71L58.63 6.71L58.63 6.71Q60.02 6.71 60.67 7.35L60.67 7.35L60.67 7.35Q61.32 7.99 61.32 9.37L61.32 9.37L61.32 9.37Q61.32 9.73 61.28 10.14L61.28 10.14L57.08 10.14L57.08 10.54L57.08 10.54Q57.08 11.77 57.60 12.40L57.60 12.40L57.60 12.40Q58.13 13.03 59.09 13.03L59.09 13.03L59.09 13.03Q59.99 13.03 61.14 12.71L61.14 12.71L61.24 13.20L61.24 13.20Q60.68 13.55 60.10 13.71L60.10 13.71L60.10 13.71Q59.53 13.87 58.79 13.87L58.79 13.87ZM57.11 9.56L59.86 9.41L59.86 9.10L59.86 9.10Q59.86 8.29 59.60 7.89L59.60 7.89L59.60 7.89Q59.33 7.49 58.72 7.49L58.72 7.49L58.72 7.49Q57.88 7.49 57.52 7.97L57.52 7.97L57.52 7.97Q57.16 8.46 57.11 9.56L57.11 9.56ZM68.74 7.35L67.83 7.63L65.49 13.78L64.69 13.92L62.29 7.62L61.49 7.35L61.47 6.85L64.62 6.85L64.62 7.36L63.77 7.62L65.32 12.00L66.89 7.63L65.79 7.36L65.79 6.85L68.74 6.85L68.74 7.35ZM71.01 5.66L71.01 5.66Q70.62 5.66 70.34 5.40L70.34 5.40L70.34 5.40Q70.06 5.14 70.06 4.76L70.06 4.76L70.06 4.76Q70.06 4.38 70.34 4.10L70.34 4.10L70.34 4.10Q70.63 3.82 71.01 3.82L71.01 3.82L71.01 3.82Q71.37 3.82 71.66 4.10L71.66 4.10L71.66 4.10Q71.95 4.38 71.95 4.76L71.95 4.76L71.95 4.76Q71.95 5.14 71.67 5.40L71.67 5.40L71.67 5.40Q71.39 5.66 71.01 5.66L71.01 5.66ZM72.91 13.72L69.12 13.72L69.12 13.19L70.32 12.91L70.32 7.81L69.12 7.67L69.12 7.24L71.27 6.71L71.71 6.71L71.71 12.91L72.91 13.19L72.91 13.72ZM77.20 13.72L73.39 13.72L73.39 13.19L74.61 12.91L74.61 4.63L73.39 4.49L73.39 4.06L75.53 3.53L75.99 3.53L75.99 12.91L77.20 13.19L77.20 13.72ZM80.60 7.49L80.60 7.49Q79.97 7.49 79.62 7.74L79.62 7.74L79.62 7.74Q79.27 7.98 79.27 8.41L79.27 8.41L79.27 8.41Q79.27 8.82 79.46 9.04L79.46 9.04L79.46 9.04Q79.66 9.25 80.16 9.44L80.16 9.44L81.35 9.84L81.35 9.84Q82.21 10.14 82.54 10.56L82.54 10.56L82.54 10.56Q82.87 10.98 82.87 11.72L82.87 11.72L82.87 11.72Q82.87 12.71 82.17 13.29L82.17 13.29L82.17 13.29Q81.48 13.86 80.18 13.86L80.18 13.86L80.18 13.86Q79.67 13.86 79.08 13.76L79.08 13.76L79.08 13.76Q78.48 13.66 78.02 13.50L78.02 13.50L78.22 11.77L78.76 11.77L79.06 12.94L79.06 12.94Q79.62 13.10 80.21 13.10L80.21 13.10L80.21 13.10Q81.65 13.10 81.65 11.97L81.65 11.97L81.65 11.97Q81.65 11.63 81.42 11.42L81.42 11.42L81.42 11.42Q81.20 11.20 80.60 10.99L80.60 10.99L79.52 10.63L79.52 10.63Q78.78 10.35 78.44 9.91L78.44 9.91L78.44 9.91Q78.11 9.48 78.11 8.76L78.11 8.76L78.11 8.76Q78.11 7.78 78.74 7.25L78.74 7.25L78.74 7.25Q79.37 6.71 80.63 6.71L80.63 6.71L80.63 6.71Q81.62 6.71 82.60 7.14L82.60 7.14L82.39 8.72L81.86 8.72L81.56 7.70L81.56 7.70Q81.38 7.62 81.11 7.55L81.11 7.55L81.11 7.55Q80.84 7.49 80.60 7.49L80.60 7.49Z"></path></g><defs data-v-423bf9ae=""><linearGradient data-v-423bf9ae="" gradientTransform="rotate(25)" id="cfbbfb81-fb15-45e5-a620-d926063dd082" x1="0%" y1="0%" x2="100%" y2="0%"><stop data-v-423bf9ae="" offset="0%" style="stop-color: rgb(95, 37, 23); stop-opacity: 1;"></stop><stop data-v-423bf9ae="" offset="100%" style="stop-color: rgb(255, 237, 181); stop-opacity: 1;"></stop></linearGradient></defs><g data-v-423bf9ae="" id="3a73b422-c3a3-4454-93d6-298385c9d6e5" transform="matrix(2.8125,0,0,2.8125,0,0)" stroke="none" fill="url(#cfbbfb81-fb15-45e5-a620-d926063dd082)"><path d="M0 32h32V0H0v32zM2 2h2.981L16.01 21.103 27.04 2H30v28H2V2z"></path></g><!----><g data-v-423bf9ae="" id="b3036f24-633a-4a18-8fdf-c14fc4874ad3" fill="#000000" transform="matrix(1.1534349227519203,0,0,1.1534349227519203,108.69662551703394,57.57778592907027)"><path d="M7.83 3.22L7.83 2.21L1.13 2.21L1.13 11.48L2.18 11.48L2.18 7.46L7.21 7.46L7.21 6.44L2.18 6.44L2.18 3.22ZM20.41 2.10C17.60 2.10 15.71 4.21 15.71 6.85C15.71 9.48 17.60 11.59 20.41 11.59C23.23 11.59 25.12 9.48 25.12 6.85C25.12 4.21 23.23 2.10 20.41 2.10ZM20.41 10.57C18.16 10.57 16.76 8.93 16.76 6.85C16.76 4.76 18.16 3.12 20.41 3.12C22.67 3.12 24.07 4.76 24.07 6.85C24.07 8.93 22.67 10.57 20.41 10.57ZM34.85 7.92L38.07 7.92L40.31 11.48L41.55 11.48L39.12 7.74C40.15 7.50 41.36 6.90 41.36 5.11C41.36 3.35 40.14 2.21 38.23 2.21L33.80 2.21L33.80 11.48L34.85 11.48ZM34.85 3.21L38.11 3.21C39.42 3.21 40.31 3.93 40.31 5.11C40.31 6.55 39.05 6.93 38.05 6.93L34.85 6.93ZM66.72 2.21L59.21 2.21L59.21 3.22L62.44 3.22L62.44 11.48L63.49 11.48L63.49 3.22L66.72 3.22ZM81.49 2.21L81.49 6.33L76.10 6.33L76.10 2.21L75.05 2.21L75.05 11.48L76.10 11.48L76.10 7.35L81.49 7.35L81.49 11.48L82.54 11.48L82.54 2.21ZM98.63 3.22L98.63 2.21L91.81 2.21L91.81 11.48L98.63 11.48L98.63 10.47L92.86 10.47L92.86 7.35L98.01 7.35L98.01 6.33L92.86 6.33L92.86 3.22ZM125.10 2.21L121.84 6.61L118.52 2.21L117.31 2.21L117.31 11.48L118.36 11.48L118.36 3.81L121.84 8.22L125.27 3.81L125.27 11.48L126.32 11.48L126.32 2.21ZM139.71 2.10C136.89 2.10 135.00 4.21 135.00 6.85C135.00 9.48 136.89 11.59 139.71 11.59C142.52 11.59 144.41 9.48 144.41 6.85C144.41 4.21 142.52 2.10 139.71 2.10ZM139.71 10.57C137.45 10.57 136.05 8.93 136.05 6.85C136.05 4.76 137.45 3.12 139.71 3.12C141.96 3.12 143.36 4.76 143.36 6.85C143.36 8.93 141.96 10.57 139.71 10.57ZM157.00 2.21L153.09 2.21L153.09 11.48L157.00 11.48C159.21 11.48 161.25 9.74 161.25 6.85C161.25 3.95 159.21 2.21 157.00 2.21ZM156.95 10.49L154.14 10.49L154.14 3.21L156.95 3.21C158.93 3.21 160.20 4.86 160.20 6.85C160.20 8.83 158.93 10.49 156.95 10.49ZM176.76 3.22L176.76 2.21L169.95 2.21L169.95 11.48L176.76 11.48L176.76 10.47L171.00 10.47L171.00 7.35L176.15 7.35L176.15 6.33L171.00 6.33L171.00 3.22ZM186.51 7.92L189.73 7.92L191.97 11.48L193.21 11.48L190.78 7.74C191.81 7.50 193.02 6.90 193.02 5.11C193.02 3.35 191.80 2.21 189.90 2.21L185.46 2.21L185.46 11.48L186.51 11.48ZM186.51 3.21L189.77 3.21C191.09 3.21 191.97 3.93 191.97 5.11C191.97 6.55 190.71 6.93 189.71 6.93L186.51 6.93ZM208.77 2.21L208.77 10.01L203.04 2.21L201.82 2.21L201.82 11.48L202.87 11.48L202.87 3.65L208.60 11.48L209.82 11.48L209.82 2.21ZM236.87 2.21L233.60 6.61L230.29 2.21L229.07 2.21L229.07 11.48L230.12 11.48L230.12 3.81L233.60 8.22L237.03 3.81L237.03 11.48L238.08 11.48L238.08 2.21ZM251.51 2.21L250.19 2.21L246.26 11.48L247.42 11.48L248.56 8.79L253.15 8.79L254.28 11.48L255.44 11.48ZM248.96 7.83L250.85 3.30L252.74 7.83ZM270.56 2.21L270.56 10.01L264.84 2.21L263.62 2.21L263.62 11.48L264.67 11.48L264.67 3.65L270.40 11.48L271.61 11.48L271.61 2.21Z"></path></g></svg>